<?xml version="1.0" encoding="UTF-8"?>
<svg width="1000" height="1000" viewBox="0 0 1000 1000" version="1.1" xmlns="http://www.w3.org/2000/svg" xmlns:xlink="http://www.w3.org/1999/xlink">
 <path d="M851,561 c22,0,39,17,39,39 c0,22,-17,39,-39,39 l-702,0 c-22,0,-39,-17,-39,-39 c0,-22,17,-39,39,-39 Z M851,361 c22,0,39,17,39,39 c0,22,-17,39,-39,39 l-502,0 c-22,0,-39,-17,-39,-39 c0,-22,17,-39,39,-39 Z M851,161 c22,0,39,17,39,39 c0,22,-17,39,-39,39 l-702,0 c-22,0,-39,-17,-39,-39 c0,-22,17,-39,39,-39 Z M851,-39 c22,0,39,17,39,39 c0,22,-17,39,-39,39 l-502,0 c-22,0,-39,-17,-39,-39 c0,-22,17,-39,39,-39 Z M851,-39" fill="rgb(0,0,0)" transform="matrix(1,0,0,-1,0,800)"/>
</svg>