<?xml version="1.0" encoding="UTF-8"?>
<svg width="1000" height="1000" viewBox="0 0 1000 1000" version="1.1" xmlns="http://www.w3.org/2000/svg" xmlns:xlink="http://www.w3.org/1999/xlink">
 <path d="M500,-149 c17,0,30,14,30,30 l0,105 c71,7,139,38,193,91 c54,54,84,122,91,193 l105,0 c16,0,30,13,30,30 c0,17,-13,30,-30,30 l-105,0 c-7,71,-37,139,-91,193 c-54,54,-123,84,-193,91 l0,105 c0,17,-13,30,-30,30 c-17,0,-30,-13,-30,-30 l0,-105 c-70,-7,-139,-37,-193,-91 c-54,-54,-84,-122,-91,-193 l-105,0 c-17,0,-30,-13,-30,-30 c0,-17,13,-30,30,-30 l105,0 c7,-71,37,-139,91,-193 c54,-53,122,-84,193,-91 l0,-105 c0,-17,13,-30,30,-30 Z M660,300 c0,88,-72,160,-160,160 c-88,0,-160,-72,-160,-160 c0,-88,72,-160,160,-160 c88,0,160,72,160,160 Z M500,555 c65,0,131,-25,180,-75 c100,-99,100,-261,0,-360 c-49,-50,-115,-75,-180,-75 c-65,0,-130,25,-180,75 c-100,99,-100,261,0,360 c49,50,115,75,180,75 Z M500,555" fill="rgb(0,0,0)" transform="matrix(1,0,0,-1,0,800)"/>
</svg>