<?xml version="1.0" encoding="UTF-8"?>
<svg width="1000" height="1000" viewBox="0 0 1000 1000" version="1.1" xmlns="http://www.w3.org/2000/svg" xmlns:xlink="http://www.w3.org/1999/xlink">
 <path d="M190,100 c-12,-13,-12,-28,-2,-41 c23,-28,43,-48,71,-71 c13,-10,28,-10,41,2 l48,41 c22,-12,45,-22,69,-29 l5,-63 c1,-17,11,-28,28,-30 c36,-4,64,-4,100,0 c17,2,27,13,28,30 l5,63 c24,7,47,17,69,29 l48,-41 c13,-12,28,-12,41,-2 c28,23,48,43,71,71 c10,13,10,28,-2,41 l-41,47 c13,23,22,46,29,70 l63,5 c17,1,28,11,30,28 c4,36,4,64,0,100 c-2,17,-13,27,-30,28 l-63,5 c-7,24,-16,47,-29,70 l41,47 c12,13,12,28,2,41 c-23,28,-43,48,-71,71 c-13,10,-28,10,-41,-2 l-47,-41 c-23,12,-46,22,-70,29 l-5,63 c-1,17,-11,28,-28,30 c-36,4,-64,4,-100,0 c-17,-2,-27,-13,-28,-30 l-5,-63 c-24,-7,-47,-17,-70,-29 l-47,41 c-13,12,-28,12,-41,2 c-28,-23,-48,-43,-71,-71 c-10,-13,-10,-28,2,-41 l41,-47 c-13,-23,-22,-46,-29,-70 l-63,-5 c-17,-1,-28,-11,-30,-28 c-4,-36,-4,-64,0,-100 c2,-17,13,-27,30,-28 l63,-5 c7,-24,16,-47,29,-70 Z M500,503 c52,0,104,-20,143,-60 c79,-78,79,-208,0,-286 c-39,-40,-91,-59,-143,-59 c-51,0,-103,19,-143,59 c-79,78,-79,208,0,286 c39,40,92,60,143,60 Z M500,503" fill="rgb(0,0,0)" transform="matrix(1,0,0,-1,0,800)"/>
</svg>