<?xml version="1.0" encoding="UTF-8"?>
<svg width="1000" height="1000" viewBox="0 0 1000 1000" version="1.1" xmlns="http://www.w3.org/2000/svg" xmlns:xlink="http://www.w3.org/1999/xlink">
 <path d="M826,181 l0,301 c0,49,-22,97,-82,97 c-17,0,-31,-5,-42,-15 c0,47,-22,95,-82,95 c-17,0,-31,-5,-42,-15 c0,48,-25,96,-92,96 c-66,0,-91,-47,-92,-95 c-11,9,-25,14,-42,14 c-60,0,-82,-48,-82,-97 l0,-169 c-11,10,-26,16,-45,16 c-62,0,-97,-47,-80,-125 l39,-183 c28,-131,142,-237,311,-237 c180,0,331,119,331,317 Z M270,215 c0,-19,12,-30,30,-30 c17,0,28,11,28,30 l0,347 c0,22,12,39,34,39 c22,0,33,-17,33,-39 l0,-218 c0,-19,12,-30,29,-30 c17,0,29,11,29,30 l0,299 c0,22,11,39,33,39 c22,0,33,-17,33,-39 l0,-299 c0,-19,12,-30,29,-30 c17,0,29,11,29,30 l0,218 c0,22,11,39,33,39 c22,0,33,-17,33,-39 l0,-218 c0,-19,12,-30,29,-30 c17,0,29,11,29,30 l0,138 c0,22,11,39,33,39 c22,0,34,-17,34,-39 l0,-301 c0,-162,-124,-258,-273,-258 c-138,0,-231,82,-256,196 l-39,178 c-8,36,11,54,35,54 c23,0,35,-19,35,-42 Z M270,215" fill="rgb(0,0,0)" transform="matrix(1,0,0,-1,0,800)"/>
</svg>