<?xml version="1.0" encoding="UTF-8"?>
<svg width="1000" height="1000" viewBox="0 0 1000 1000" version="1.1" xmlns="http://www.w3.org/2000/svg" xmlns:xlink="http://www.w3.org/1999/xlink">
 <path d="M729,-50 c17,0,31,13,31,30 c0,17,-13,30,-30,30 l-185,0 l0,445 c0,17,-13,30,-30,30 l-234,0 c-17,0,-30,-13,-30,-30 c0,-17,13,-30,30,-30 l184,0 l0,-415 l-184,0 c-17,0,-30,-13,-30,-30 c0,-17,13,-30,30,-30 Z M502,580 c30,0,60,31,60,61 c0,30.64,-28.65,59,-60,59 c-29.39,0,-59,-27.32,-59,-60 c0,-30,29,-60,59,-60 Z M502,580" fill="rgb(0,0,0)" transform="matrix(1,0,0,-1,0,800)"/>
</svg>