<?xml version="1.0" encoding="UTF-8"?>
<svg width="1000" height="1000" viewBox="0 0 1000 1000" version="1.1" xmlns="http://www.w3.org/2000/svg" xmlns:xlink="http://www.w3.org/1999/xlink">
 <path d="M490,-137 l-405,178 c-9,4,-16,13.0,-16,24 c0,11.0,6,20,16,24 l124,55 l-124,54 c-9,4,-16,13,-16,24 c0,11,6,20,16,24 l124,54 l-124,55 c-9,4,-16,13,-16,24 c0,10,6,20,16,24 l124,55 l-124,53 c-9,4,-16,13,-16,24 c0,10,6,20,16,24 l405,178 c6,3,14,3,20,0 l405,-178 c9,-4,16,-13,16,-24 c0,-10,-6,-20,-16,-24 l-124,-55 l124,-55 c9,-4,16,-13.0,16,-24 c0,-10,-6,-20,-16,-24.0 l-124,-53.0 l124,-55 c9,-4,16,-13,16,-24 c0,-11,-6,-20,-16,-24 l-124,-55 l124,-55 c9,-4,16,-13,16,-24 c0,-11.0,-6,-20,-16,-24.0 l-405,-176.0 c-6,-3,-14,-3,-20,0 Z M160,65 l340,-150 l340,150 l-114,50 l-216,-95 c-7,-3,-14,-3,-21,0 l-216,95 Z M284,167 l216,-95 l216,95 c0,0,1.0,0,1.0,1 l123.0,54 l-114,50 l-216,-96 c-7,-3,-14,-3,-21,0 l-216,95 l-114.0,-50 l123.0,-54 c1.0,0,2.0,0,2.0,0 Z M284,324 l216,-95 l216,95 c0,0,1.0,0,1.0,1 l123.0,53 l-114,50 l-216,-95 c-7,-3,-14,-3,-21,0 l-216,95 l-114.0,-50 l123.0,-54 c1.0,0,2.0,0,2.0,0 Z M284,480 l216,-95 l216,95 c0,0,1.0,0,1.0,1 l123.0,54 l-340,150 l-340,-150 l124,-54 c-1,0,0,0,0,-1 Z M284,480" fill="rgb(0,0,0)" transform="matrix(1,0,0,-1,0,800)"/>
</svg>