<?xml version="1.0" encoding="UTF-8"?>
<svg width="1000" height="1000" viewBox="0 0 1000 1000" version="1.1" xmlns="http://www.w3.org/2000/svg" xmlns:xlink="http://www.w3.org/1999/xlink">
 <path d="M380,640 c121,0,220,-99,220,-220 c0,-121,-99,-220,-220,-220 c-121,0,-220,99,-220,220 c0,121,99,220,220,220 Z M840,-91 c25.94,0,50,25.94,50,52 c0,13,-5,26,-15,36 l-194,194 c-12,12,-29,17,-44,14 l-39,39 c39,48,62,110,62,176 c0,154,-126,280,-280,280 c-154,0,-280,-126,-280,-280 c0,-154,126,-280,280,-280 c66,0,128,23,176,62 l39,-39 c-3,-15,2,-32,14,-44 l195,-195 c10,-10,23,-15,36,-15 Z M840,-91" fill="rgb(0,0,0)" transform="matrix(1,0,0,-1,0,800)"/>
</svg>