<?xml version="1.0" encoding="UTF-8"?>
<svg width="1000" height="1000" viewBox="0 0 1000 1000" version="1.1" xmlns="http://www.w3.org/2000/svg" xmlns:xlink="http://www.w3.org/1999/xlink">
 <path d="M510,-60 c17,0,30,13,30,30 l0,290 l290,0 c17,0,30,13,30,30 l0,20 c0,17,-13,30,-30,30 l-290,0 l0,290 c0,17,-13,30,-30,30 l-20,0 c-17,0,-30,-13,-30,-30 l0,-290 l-290,0 c-17,0,-30,-13,-30,-30 l0,-20 c0,-17,13,-30,30,-30 l290,0 l0,-290 c0,-17,13,-30,30,-30 Z M510,-60" fill="rgb(0,0,0)" transform="matrix(1,0,0,-1,0,800)"/>
</svg>