<?xml version="1.0" encoding="UTF-8"?>
<svg width="1000" height="1000" viewBox="0 0 1000 1000" version="1.1" xmlns="http://www.w3.org/2000/svg" xmlns:xlink="http://www.w3.org/1999/xlink">
 <path d="M560,696 l-198,0 c-17,0,-30,-13,-30,-30 l0,-660 c0,-17,13,-30,30,-30 l21,0 c17,0,29,13,29,30 l0,247 l158,0 l136,-259 c6,-11,15,-18,27,-18 l21,0 c16,0,32,9,32,26 c0,16,-3,21,-7,29 l-131,236 c98,28,147,108,147,226 c0,146,-97,203,-235,203 Z M489,-55 l-20,0 c0,-11,-9,-20,-20,-20 l-290,0 c-11,0,-20,9,-20,20 c0,11,9,20,20,20 l105,0 c6,0,10,4,10,10 l0,600 c0,6,-4,10,-10,10 l-105,0 c-11,0,-20,9,-20,20 c0,11,9,20,20,20 l133,0 l0,20 l-133,0 c-22,0,-40,-18,-40,-40 c0,-22,18,-40,40,-40 l95,0 l0,-580 l-95,0 c-22,0,-40,-18,-40,-40 c0,-22,18,-40,40,-40 l290,0 c22,0,40,18,40,40 Z M412,313 l0,323 l142,0 c110,0,157,-42,157,-152 c0,-114,-52,-171,-149,-171 Z M647,-62 l-136,259 c-2,3,-5,5,-9,5 l-50,0 l0,-20 l44,0 l133,-254 c8,-15,21,-23,36,-23 l159,0 c22,0,40,18,40,40 l-20,0 c0,-11,-9,-20,-20,-20 l-159,0 c-3,0,-11,0,-18,13 Z M699,-30 c1,-2,3,-4,6,-5 c-3,2,-5,4,-7,7 Z M653,423 c0,59,-13,98,-40,124 c-27,26,-68,38,-127,38 l-34,0 l0,-20 l34,0 c54,0,90,-10,113,-32 c23,-22,34,-57,34,-110 c0,-10,0,-20,-1,-29 l21,17 c0,4,0,8,0,12 Z M653,423" fill="rgb(0,0,0)" transform="matrix(1,0,0,-1,0,800)"/>
</svg>