<?xml version="1.0" encoding="UTF-8"?>
<svg width="1000" height="1000" viewBox="0 0 1000 1000" version="1.1" xmlns="http://www.w3.org/2000/svg" xmlns:xlink="http://www.w3.org/1999/xlink">
 <path d="M733,686 c12,12,12,29,0,41 l-8,9 c-12,12,-30,12,-42,0 l-637,-637 c-12,-12,-12,-30,0,-42 l9,-8 c12,-12,29,-12,41,0 l18,18 l210,-210 c10,-10,25,-9,35,1 c9,10,9,24,0,34 l-210,210 l36,36 l107,-108 c10,-10,26,-10,35,1 c10,10,10,24,0,34 l-107,108 l35,35 l107,-108 c10,-10,26,-10,36,0 c9,11,10,26,0,36 l-107,108 l35,35 l108,-107 c10,-10,24,-10,34,0 c10,10,11,25,1,35 l-107,108 l35,35 l209,-209 c9,-10,26,-10,35,0 c10,9,10,26,0,35 l-209,209 l36,36 l107,-108 c10,-10,25,-9,35,1 c10,10,10,24,0,34 l-107,108 l36,36 l107,-108 c10,-10,25,-10,34,0 c10,10,10,24,0,34 l-107,108 l36,36 l107,-108 c10,-10,24,-10,34,0 c10,9,10,24,0,34 l-107,108 l36,36 l209,-209 c10,-10,25,-10,36,0 c10,9,9,26,-1,36 l-208,209 Z M733,686" fill="rgb(0,0,0)" transform="matrix(1,0,0,-1,0,800)"/>
</svg>