<?xml version="1.0" encoding="UTF-8"?>
<svg width="1000" height="1000" viewBox="0 0 1000 1000" version="1.1" xmlns="http://www.w3.org/2000/svg" xmlns:xlink="http://www.w3.org/1999/xlink">
 <path d="M485,520 c32,0,65,21,74,50 l301,0 c17,0,30,13,30,30 c0,17,-13,30,-30,30 l-300,0 c-12,29,-43,50,-75,50 c-34,0,-65,-21,-74,-50 l-271,0 c-17,0,-30,-13,-30,-30 c0,-17,13,-30,30,-30 l270,0 c12,-29,43,-50,75,-50 Z M597,320 c34,0,65,21,74,50 l189,0 c17,0,30,13,30,30 c0,17,-13,30,-30,30 l-188,0 c-12,29,-42,50,-75,50 c-34,0,-65,-21,-74,-50 l-383,0 c-17,0,-30,-13,-30,-30 c0,-17,13,-30,30,-30 l382,0 c12,-29,43,-50,75,-50 Z M637,120 c31,0,63,21,74,50 l149,0 c17,0,30,13,30,30 c0,17,-13,30,-30,30 l-150,0 c-12,29,-43,49,-73,49 c-31,0,-62,-19,-74,-49 l-423,0 c-17,0,-30,-13,-30,-30 c0,-17,13,-30,30,-30 l422,0 c12,-29,45,-50,75,-50 Z M259,-80 c31,0,63,21,74,50 l527,0 c17,0,30,13,30,30 c0,17,-13,30,-30,30 l-528,0 c-11.75,29.39,-42.68,49,-73,49 c-31.5,0,-62,-19,-74,-49 l-45,0 c-17,0,-30,-13,-30,-30 c0,-17,13,-30,30,-30 l44,0 c12,-29,45,-50,75,-50 Z M259,-80" fill="rgb(0,0,0)" transform="matrix(1,0,0,-1,0,800)"/>
</svg>