<?xml version="1.0" encoding="UTF-8"?>
<svg width="1000" height="1000" viewBox="0 0 1000 1000" version="1.1" xmlns="http://www.w3.org/2000/svg" xmlns:xlink="http://www.w3.org/1999/xlink">
 <path d="M645,-60 l-290,0 c-17,0,-30,13,-30,30 c0,17,13,30,30,30 l105,0 l0,600 l-260,0 l0,-168 c0,-17,-13,-30,-30,-30 c-17,0,-30,13,-30,30 l0,198 c0,17,13,30,30,30 l660,0 c17,0,30,-13,30,-30 l0,-198 c0,-17,-13,-30,-30,-30 c-17,0,-30,13,-30,30 l0,168 l-260,0 l0,-600 l105,0 c17,0,30,-13,30,-30 c0,-17,-13,-30,-30,-30 Z M645,-60" fill="rgb(0,0,0)" transform="matrix(1,0,0,-1,0,800)"/>
</svg>